<svg width="1152" height="1330" viewBox="0 0 1152 1330" fill="none" xmlns="http://www.w3.org/2000/svg">
<path d="M736.941 71.9457C812.5 15.5 944.637 -24.3579 1152 19.9277V1330C1052.48 1323.31 863 1246.24 853.5 1243.2C844 1240.15 764 1201.8 660.706 1240.49C617.44 1256.7 592.449 1265.87 508.235 1286.94C413.082 1299.74 359.642 1306.43 258.353 1286.94C171.256 1258.34 117.539 1229.82 0 1123.45V536.392C69.9503 557.112 110.952 565.343 188.471 571.69C305.07 580.856 381.5 553.679 427.765 515.956C496.257 460.11 541 386.5 590.823 285.591C642.784 180.352 658.409 137.149 736.941 71.9457Z" fill="url(#paint0_linear)"/>
<defs>
<linearGradient id="paint0_linear" x1="1152" y1="18.5488" x2="-6.88182" y2="1119.8" gradientUnits="userSpaceOnUse">
<stop stop-color="#5B86E5"/>
<stop offset="1" stop-color="#36D1DC"/>
</linearGradient>
</defs>
</svg>
