<svg width="66" height="66" viewBox="0 0 66 66" fill="none" xmlns="http://www.w3.org/2000/svg">
<path d="M44.8946 30.0679L28.2305 13.196C27.8741 12.8481 27.47 12.6641 27.0584 12.6621C26.6469 12.6602 26.2422 12.8404 25.8846 13.1849C25.5271 13.5294 25.2291 14.0261 25.0204 14.6256C24.8117 15.2252 24.6995 15.9066 24.695 16.6022V50.346C24.6995 51.0416 24.8117 51.7231 25.0204 52.3226C25.2291 52.9222 25.5271 53.4189 25.8846 53.7634C26.2422 54.1079 26.6469 54.2881 27.0584 54.2861C27.47 54.2842 27.8741 54.1001 28.2305 53.7523L44.8946 36.8804C45.2409 36.5253 45.5273 36.0253 45.726 35.4286C45.9248 34.832 46.0292 34.1588 46.0292 33.4741C46.0292 32.7894 45.9248 32.1163 45.726 31.5196C45.5273 30.923 45.2409 30.423 44.8946 30.0679Z" fill="url(#paint0_linear)"/>
<path d="M64.3316 32.9665C64.3316 50.3557 50.225 64.4536 32.8223 64.4536C15.4195 64.4536 1.31299 50.3557 1.31299 32.9665C1.31299 15.5773 15.4195 1.47946 32.8223 1.47946C50.225 1.47946 64.3316 15.5773 64.3316 32.9665Z" stroke="url(#paint1_linear)" stroke-width="2"/>
<defs>
<linearGradient id="paint0_linear" x1="38.837" y1="22.6219" x2="18.3067" y2="34.2622" gradientUnits="userSpaceOnUse">
<stop stop-color="#5B86E5"/>
<stop offset="1" stop-color="#36D1DC"/>
</linearGradient>
<linearGradient id="paint1_linear" x1="59.2361" y1="7.58601" x2="11.5196" y2="53.8112" gradientUnits="userSpaceOnUse">
<stop stop-color="#5B86E5"/>
<stop offset="1" stop-color="#36D1DC"/>
</linearGradient>
</defs>
</svg>
